# xmcd CD database file
#
# Track frame offsets:
#	150
#	10281
#	51167
#	74679
#	106667
#	137520
#	179828
#	214574
#	241319
#
# Disc length: 3619 seconds
#
# Revision: 0
# Processed by: cddbd v1.5.2PL0 Copyright (c) Steve Scherf et al.
# Submitted via: CDex 1.51
#
DISCID=7e0e2109
DTITLE=contrast quartet - second wave
DYEAR=2008
DGENRE=Jazz
TTITLE0=intro
TTITLE1=the sixth sense
TTITLE2=time like eternity
TTITLE3=dimensions
TTITLE4=fog on the way
TTITLE5=second wave
TTITLE6=not from here
TTITLE7=passion dance
TTITLE8=my life is you
EXTD=YEAR: 2008
EXTT0=
EXTT1=
EXTT2=
EXTT3=
EXTT4=
EXTT5=
EXTT6=
EXTT7=
EXTT8=
PLAYORDER=
